<?xml version="1.0" encoding="utf-8" standalone="no"?>
<!DOCTYPE svg PUBLIC "-//W3C//DTD SVG 1.1//EN"
  "http://www.w3.org/Graphics/SVG/1.1/DTD/svg11.dtd">
<!-- Created with matplotlib (https://matplotlib.org/) -->
<svg height="221.76pt" version="1.1" viewBox="0 0 330.48 221.76" width="330.48pt" xmlns="http://www.w3.org/2000/svg" xmlns:xlink="http://www.w3.org/1999/xlink">
 <metadata>
  <rdf:RDF xmlns:cc="http://creativecommons.org/ns#" xmlns:dc="http://purl.org/dc/elements/1.1/" xmlns:rdf="http://www.w3.org/1999/02/22-rdf-syntax-ns#">
   <cc:Work>
    <dc:type rdf:resource="http://purl.org/dc/dcmitype/StillImage"/>
    <dc:date>2022-05-03T15:58:28.003667</dc:date>
    <dc:format>image/svg+xml</dc:format>
    <dc:creator>
     <cc:Agent>
      <dc:title>Matplotlib v3.3.4, https://matplotlib.org/</dc:title>
     </cc:Agent>
    </dc:creator>
   </cc:Work>
  </rdf:RDF>
 </metadata>
 <defs>
  <style type="text/css">*{stroke-linecap:butt;stroke-linejoin:round;}</style>
 </defs>
 <g id="figure_1">
  <g id="patch_1">
   <path d="M 0 221.76 
L 330.48 221.76 
L 330.48 0 
L 0 0 
z
" style="fill:#ffffff;"/>
  </g>
  <g id="axes_1">
   <g id="patch_2">
    <path d="M 49.572 188.496 
L 297.432 188.496 
L 297.432 22.176 
L 49.572 22.176 
z
" style="fill:#ffffff;"/>
   </g>
   <g id="matplotlib.axis_1">
    <g id="xtick_1">
     <g id="line2d_1">
      <defs>
       <path d="M 0 0 
L 0 3.5 
" id="ma40d24c467" style="stroke:#000000;stroke-width:0.8;"/>
      </defs>
      <g>
       <use style="stroke:#000000;stroke-width:0.8;" x="104.119182" xlink:href="#ma40d24c467" y="188.496"/>
      </g>
     </g>
     <g id="text_1">
      <!-- 0.05 -->
      <g transform="translate(92.98637 203.094437)scale(0.1 -0.1)">
       <defs>
        <path d="M 31.78125 66.40625 
Q 24.171875 66.40625 20.328125 58.90625 
Q 16.5 51.421875 16.5 36.375 
Q 16.5 21.390625 20.328125 13.890625 
Q 24.171875 6.390625 31.78125 6.390625 
Q 39.453125 6.390625 43.28125 13.890625 
Q 47.125 21.390625 47.125 36.375 
Q 47.125 51.421875 43.28125 58.90625 
Q 39.453125 66.40625 31.78125 66.40625 
z
M 31.78125 74.21875 
Q 44.046875 74.21875 50.515625 64.515625 
Q 56.984375 54.828125 56.984375 36.375 
Q 56.984375 17.96875 50.515625 8.265625 
Q 44.046875 -1.421875 31.78125 -1.421875 
Q 19.53125 -1.421875 13.0625 8.265625 
Q 6.59375 17.96875 6.59375 36.375 
Q 6.59375 54.828125 13.0625 64.515625 
Q 19.53125 74.21875 31.78125 74.21875 
z
" id="DejaVuSans-48"/>
        <path d="M 10.6875 12.40625 
L 21 12.40625 
L 21 0 
L 10.6875 0 
z
" id="DejaVuSans-46"/>
        <path d="M 10.796875 72.90625 
L 49.515625 72.90625 
L 49.515625 64.59375 
L 19.828125 64.59375 
L 19.828125 46.734375 
Q 21.96875 47.46875 24.109375 47.828125 
Q 26.265625 48.1875 28.421875 48.1875 
Q 40.625 48.1875 47.75 41.5 
Q 54.890625 34.8125 54.890625 23.390625 
Q 54.890625 11.625 47.5625 5.09375 
Q 40.234375 -1.421875 26.90625 -1.421875 
Q 22.3125 -1.421875 17.546875 -0.640625 
Q 12.796875 0.140625 7.71875 1.703125 
L 7.71875 11.625 
Q 12.109375 9.234375 16.796875 8.0625 
Q 21.484375 6.890625 26.703125 6.890625 
Q 35.15625 6.890625 40.078125 11.328125 
Q 45.015625 15.765625 45.015625 23.390625 
Q 45.015625 31 40.078125 35.4375 
Q 35.15625 39.890625 26.703125 39.890625 
Q 22.75 39.890625 18.8125 39.015625 
Q 14.890625 38.140625 10.796875 36.28125 
z
" id="DejaVuSans-53"/>
       </defs>
       <use xlink:href="#DejaVuSans-48"/>
       <use x="63.623047" xlink:href="#DejaVuSans-46"/>
       <use x="95.410156" xlink:href="#DejaVuSans-48"/>
       <use x="159.033203" xlink:href="#DejaVuSans-53"/>
      </g>
     </g>
    </g>
    <g id="xtick_2">
     <g id="line2d_2">
      <g>
       <use style="stroke:#000000;stroke-width:0.8;" x="160.760495" xlink:href="#ma40d24c467" y="188.496"/>
      </g>
     </g>
     <g id="text_2">
      <!-- 0.10 -->
      <g transform="translate(149.627682 203.094437)scale(0.1 -0.1)">
       <defs>
        <path d="M 12.40625 8.296875 
L 28.515625 8.296875 
L 28.515625 63.921875 
L 10.984375 60.40625 
L 10.984375 69.390625 
L 28.421875 72.90625 
L 38.28125 72.90625 
L 38.28125 8.296875 
L 54.390625 8.296875 
L 54.390625 0 
L 12.40625 0 
z
" id="DejaVuSans-49"/>
       </defs>
       <use xlink:href="#DejaVuSans-48"/>
       <use x="63.623047" xlink:href="#DejaVuSans-46"/>
       <use x="95.410156" xlink:href="#DejaVuSans-49"/>
       <use x="159.033203" xlink:href="#DejaVuSans-48"/>
      </g>
     </g>
    </g>
    <g id="xtick_3">
     <g id="line2d_3">
      <g>
       <use style="stroke:#000000;stroke-width:0.8;" x="217.401807" xlink:href="#ma40d24c467" y="188.496"/>
      </g>
     </g>
     <g id="text_3">
      <!-- 0.15 -->
      <g transform="translate(206.268994 203.094437)scale(0.1 -0.1)">
       <use xlink:href="#DejaVuSans-48"/>
       <use x="63.623047" xlink:href="#DejaVuSans-46"/>
       <use x="95.410156" xlink:href="#DejaVuSans-49"/>
       <use x="159.033203" xlink:href="#DejaVuSans-53"/>
      </g>
     </g>
    </g>
    <g id="xtick_4">
     <g id="line2d_4">
      <g>
       <use style="stroke:#000000;stroke-width:0.8;" x="274.043119" xlink:href="#ma40d24c467" y="188.496"/>
      </g>
     </g>
     <g id="text_4">
      <!-- 0.20 -->
      <g transform="translate(262.910307 203.094437)scale(0.1 -0.1)">
       <defs>
        <path d="M 19.1875 8.296875 
L 53.609375 8.296875 
L 53.609375 0 
L 7.328125 0 
L 7.328125 8.296875 
Q 12.9375 14.109375 22.625 23.890625 
Q 32.328125 33.6875 34.8125 36.53125 
Q 39.546875 41.84375 41.421875 45.53125 
Q 43.3125 49.21875 43.3125 52.78125 
Q 43.3125 58.59375 39.234375 62.25 
Q 35.15625 65.921875 28.609375 65.921875 
Q 23.96875 65.921875 18.8125 64.3125 
Q 13.671875 62.703125 7.8125 59.421875 
L 7.8125 69.390625 
Q 13.765625 71.78125 18.9375 73 
Q 24.125 74.21875 28.421875 74.21875 
Q 39.75 74.21875 46.484375 68.546875 
Q 53.21875 62.890625 53.21875 53.421875 
Q 53.21875 48.921875 51.53125 44.890625 
Q 49.859375 40.875 45.40625 35.40625 
Q 44.1875 33.984375 37.640625 27.21875 
Q 31.109375 20.453125 19.1875 8.296875 
z
" id="DejaVuSans-50"/>
       </defs>
       <use xlink:href="#DejaVuSans-48"/>
       <use x="63.623047" xlink:href="#DejaVuSans-46"/>
       <use x="95.410156" xlink:href="#DejaVuSans-50"/>
       <use x="159.033203" xlink:href="#DejaVuSans-48"/>
      </g>
     </g>
    </g>
    <g id="text_5">
     <!-- q² (nm⁻²) -->
     <g transform="translate(150.149656 216.772562)scale(0.1 -0.1)">
      <defs>
       <path d="M 14.796875 27.296875 
Q 14.796875 17.390625 18.875 11.75 
Q 22.953125 6.109375 30.078125 6.109375 
Q 37.203125 6.109375 41.296875 11.75 
Q 45.40625 17.390625 45.40625 27.296875 
Q 45.40625 37.203125 41.296875 42.84375 
Q 37.203125 48.484375 30.078125 48.484375 
Q 22.953125 48.484375 18.875 42.84375 
Q 14.796875 37.203125 14.796875 27.296875 
z
M 45.40625 8.203125 
Q 42.578125 3.328125 38.25 0.953125 
Q 33.9375 -1.421875 27.875 -1.421875 
Q 17.96875 -1.421875 11.734375 6.484375 
Q 5.515625 14.40625 5.515625 27.296875 
Q 5.515625 40.1875 11.734375 48.09375 
Q 17.96875 56 27.875 56 
Q 33.9375 56 38.25 53.625 
Q 42.578125 51.265625 45.40625 46.390625 
L 45.40625 54.6875 
L 54.390625 54.6875 
L 54.390625 -20.796875 
L 45.40625 -20.796875 
z
" id="DejaVuSans-113"/>
       <path d="M 13.09375 38.1875 
L 33.796875 38.1875 
L 33.796875 32.625 
L 4.59375 32.625 
L 4.59375 37.984375 
Q 6.25 39.5 9.328125 42.234375 
Q 26.125 57.125 26.125 61.71875 
Q 26.125 64.9375 23.578125 66.90625 
Q 21.046875 68.890625 16.890625 68.890625 
Q 14.359375 68.890625 11.375 68.03125 
Q 8.40625 67.1875 4.890625 65.484375 
L 4.890625 71.484375 
Q 8.640625 72.859375 11.890625 73.53125 
Q 15.140625 74.21875 17.921875 74.21875 
Q 25 74.21875 29.25 71 
Q 33.5 67.78125 33.5 62.5 
Q 33.5 55.71875 17.328125 41.84375 
Q 14.59375 39.5 13.09375 38.1875 
z
" id="DejaVuSans-178"/>
       <path id="DejaVuSans-32"/>
       <path d="M 31 75.875 
Q 24.46875 64.65625 21.28125 53.65625 
Q 18.109375 42.671875 18.109375 31.390625 
Q 18.109375 20.125 21.3125 9.0625 
Q 24.515625 -2 31 -13.1875 
L 23.1875 -13.1875 
Q 15.875 -1.703125 12.234375 9.375 
Q 8.59375 20.453125 8.59375 31.390625 
Q 8.59375 42.28125 12.203125 53.3125 
Q 15.828125 64.359375 23.1875 75.875 
z
" id="DejaVuSans-40"/>
       <path d="M 54.890625 33.015625 
L 54.890625 0 
L 45.90625 0 
L 45.90625 32.71875 
Q 45.90625 40.484375 42.875 44.328125 
Q 39.84375 48.1875 33.796875 48.1875 
Q 26.515625 48.1875 22.3125 43.546875 
Q 18.109375 38.921875 18.109375 30.90625 
L 18.109375 0 
L 9.078125 0 
L 9.078125 54.6875 
L 18.109375 54.6875 
L 18.109375 46.1875 
Q 21.34375 51.125 25.703125 53.5625 
Q 30.078125 56 35.796875 56 
Q 45.21875 56 50.046875 50.171875 
Q 54.890625 44.34375 54.890625 33.015625 
z
" id="DejaVuSans-110"/>
       <path d="M 52 44.1875 
Q 55.375 50.25 60.0625 53.125 
Q 64.75 56 71.09375 56 
Q 79.640625 56 84.28125 50.015625 
Q 88.921875 44.046875 88.921875 33.015625 
L 88.921875 0 
L 79.890625 0 
L 79.890625 32.71875 
Q 79.890625 40.578125 77.09375 44.375 
Q 74.3125 48.1875 68.609375 48.1875 
Q 61.625 48.1875 57.5625 43.546875 
Q 53.515625 38.921875 53.515625 30.90625 
L 53.515625 0 
L 44.484375 0 
L 44.484375 32.71875 
Q 44.484375 40.625 41.703125 44.40625 
Q 38.921875 48.1875 33.109375 48.1875 
Q 26.21875 48.1875 22.15625 43.53125 
Q 18.109375 38.875 18.109375 30.90625 
L 18.109375 0 
L 9.078125 0 
L 9.078125 54.6875 
L 18.109375 54.6875 
L 18.109375 46.1875 
Q 21.1875 51.21875 25.484375 53.609375 
Q 29.78125 56 35.6875 56 
Q 41.65625 56 45.828125 52.96875 
Q 50 49.953125 52 44.1875 
z
" id="DejaVuSans-109"/>
       <path d="M 6.6875 52.484375 
L 46.09375 52.484375 
L 46.09375 47.859375 
L 6.6875 47.859375 
z
" id="DejaVuSans-8315"/>
       <path d="M 8.015625 75.875 
L 15.828125 75.875 
Q 23.140625 64.359375 26.78125 53.3125 
Q 30.421875 42.28125 30.421875 31.390625 
Q 30.421875 20.453125 26.78125 9.375 
Q 23.140625 -1.703125 15.828125 -13.1875 
L 8.015625 -13.1875 
Q 14.5 -2 17.703125 9.0625 
Q 20.90625 20.125 20.90625 31.390625 
Q 20.90625 42.671875 17.703125 53.65625 
Q 14.5 64.65625 8.015625 75.875 
z
" id="DejaVuSans-41"/>
      </defs>
      <use xlink:href="#DejaVuSans-113"/>
      <use x="63.476562" xlink:href="#DejaVuSans-178"/>
      <use x="103.564453" xlink:href="#DejaVuSans-32"/>
      <use x="135.351562" xlink:href="#DejaVuSans-40"/>
      <use x="174.365234" xlink:href="#DejaVuSans-110"/>
      <use x="237.744141" xlink:href="#DejaVuSans-109"/>
      <use x="335.15625" xlink:href="#DejaVuSans-8315"/>
      <use x="387.939453" xlink:href="#DejaVuSans-178"/>
      <use x="428.027344" xlink:href="#DejaVuSans-41"/>
     </g>
    </g>
   </g>
   <g id="matplotlib.axis_2">
    <g id="ytick_1">
     <g id="line2d_5">
      <defs>
       <path d="M 0 0 
L -3.5 0 
" id="m15a1f61a82" style="stroke:#000000;stroke-width:0.8;"/>
      </defs>
      <g>
       <use style="stroke:#000000;stroke-width:0.8;" x="49.572" xlink:href="#m15a1f61a82" y="178.630194"/>
      </g>
     </g>
     <g id="text_6">
      <!-- 5.2 -->
      <g transform="translate(26.668875 182.429413)scale(0.1 -0.1)">
       <use xlink:href="#DejaVuSans-53"/>
       <use x="63.623047" xlink:href="#DejaVuSans-46"/>
       <use x="95.410156" xlink:href="#DejaVuSans-50"/>
      </g>
     </g>
    </g>
    <g id="ytick_2">
     <g id="line2d_6">
      <g>
       <use style="stroke:#000000;stroke-width:0.8;" x="49.572" xlink:href="#m15a1f61a82" y="155.927708"/>
      </g>
     </g>
     <g id="text_7">
      <!-- 5.3 -->
      <g transform="translate(26.668875 159.726926)scale(0.1 -0.1)">
       <defs>
        <path d="M 40.578125 39.3125 
Q 47.65625 37.796875 51.625 33 
Q 55.609375 28.21875 55.609375 21.1875 
Q 55.609375 10.40625 48.1875 4.484375 
Q 40.765625 -1.421875 27.09375 -1.421875 
Q 22.515625 -1.421875 17.65625 -0.515625 
Q 12.796875 0.390625 7.625 2.203125 
L 7.625 11.71875 
Q 11.71875 9.328125 16.59375 8.109375 
Q 21.484375 6.890625 26.8125 6.890625 
Q 36.078125 6.890625 40.9375 10.546875 
Q 45.796875 14.203125 45.796875 21.1875 
Q 45.796875 27.640625 41.28125 31.265625 
Q 36.765625 34.90625 28.71875 34.90625 
L 20.21875 34.90625 
L 20.21875 43.015625 
L 29.109375 43.015625 
Q 36.375 43.015625 40.234375 45.921875 
Q 44.09375 48.828125 44.09375 54.296875 
Q 44.09375 59.90625 40.109375 62.90625 
Q 36.140625 65.921875 28.71875 65.921875 
Q 24.65625 65.921875 20.015625 65.03125 
Q 15.375 64.15625 9.8125 62.3125 
L 9.8125 71.09375 
Q 15.4375 72.65625 20.34375 73.4375 
Q 25.25 74.21875 29.59375 74.21875 
Q 40.828125 74.21875 47.359375 69.109375 
Q 53.90625 64.015625 53.90625 55.328125 
Q 53.90625 49.265625 50.4375 45.09375 
Q 46.96875 40.921875 40.578125 39.3125 
z
" id="DejaVuSans-51"/>
       </defs>
       <use xlink:href="#DejaVuSans-53"/>
       <use x="63.623047" xlink:href="#DejaVuSans-46"/>
       <use x="95.410156" xlink:href="#DejaVuSans-51"/>
      </g>
     </g>
    </g>
    <g id="ytick_3">
     <g id="line2d_7">
      <g>
       <use style="stroke:#000000;stroke-width:0.8;" x="49.572" xlink:href="#m15a1f61a82" y="133.225222"/>
      </g>
     </g>
     <g id="text_8">
      <!-- 5.4 -->
      <g transform="translate(26.668875 137.02444)scale(0.1 -0.1)">
       <defs>
        <path d="M 37.796875 64.3125 
L 12.890625 25.390625 
L 37.796875 25.390625 
z
M 35.203125 72.90625 
L 47.609375 72.90625 
L 47.609375 25.390625 
L 58.015625 25.390625 
L 58.015625 17.1875 
L 47.609375 17.1875 
L 47.609375 0 
L 37.796875 0 
L 37.796875 17.1875 
L 4.890625 17.1875 
L 4.890625 26.703125 
z
" id="DejaVuSans-52"/>
       </defs>
       <use xlink:href="#DejaVuSans-53"/>
       <use x="63.623047" xlink:href="#DejaVuSans-46"/>
       <use x="95.410156" xlink:href="#DejaVuSans-52"/>
      </g>
     </g>
    </g>
    <g id="ytick_4">
     <g id="line2d_8">
      <g>
       <use style="stroke:#000000;stroke-width:0.8;" x="49.572" xlink:href="#m15a1f61a82" y="110.522735"/>
      </g>
     </g>
     <g id="text_9">
      <!-- 5.5 -->
      <g transform="translate(26.668875 114.321954)scale(0.1 -0.1)">
       <use xlink:href="#DejaVuSans-53"/>
       <use x="63.623047" xlink:href="#DejaVuSans-46"/>
       <use x="95.410156" xlink:href="#DejaVuSans-53"/>
      </g>
     </g>
    </g>
    <g id="ytick_5">
     <g id="line2d_9">
      <g>
       <use style="stroke:#000000;stroke-width:0.8;" x="49.572" xlink:href="#m15a1f61a82" y="87.820249"/>
      </g>
     </g>
     <g id="text_10">
      <!-- 5.6 -->
      <g transform="translate(26.668875 91.619468)scale(0.1 -0.1)">
       <defs>
        <path d="M 33.015625 40.375 
Q 26.375 40.375 22.484375 35.828125 
Q 18.609375 31.296875 18.609375 23.390625 
Q 18.609375 15.53125 22.484375 10.953125 
Q 26.375 6.390625 33.015625 6.390625 
Q 39.65625 6.390625 43.53125 10.953125 
Q 47.40625 15.53125 47.40625 23.390625 
Q 47.40625 31.296875 43.53125 35.828125 
Q 39.65625 40.375 33.015625 40.375 
z
M 52.59375 71.296875 
L 52.59375 62.3125 
Q 48.875 64.0625 45.09375 64.984375 
Q 41.3125 65.921875 37.59375 65.921875 
Q 27.828125 65.921875 22.671875 59.328125 
Q 17.53125 52.734375 16.796875 39.40625 
Q 19.671875 43.65625 24.015625 45.921875 
Q 28.375 48.1875 33.59375 48.1875 
Q 44.578125 48.1875 50.953125 41.515625 
Q 57.328125 34.859375 57.328125 23.390625 
Q 57.328125 12.15625 50.6875 5.359375 
Q 44.046875 -1.421875 33.015625 -1.421875 
Q 20.359375 -1.421875 13.671875 8.265625 
Q 6.984375 17.96875 6.984375 36.375 
Q 6.984375 53.65625 15.1875 63.9375 
Q 23.390625 74.21875 37.203125 74.21875 
Q 40.921875 74.21875 44.703125 73.484375 
Q 48.484375 72.75 52.59375 71.296875 
z
" id="DejaVuSans-54"/>
       </defs>
       <use xlink:href="#DejaVuSans-53"/>
       <use x="63.623047" xlink:href="#DejaVuSans-46"/>
       <use x="95.410156" xlink:href="#DejaVuSans-54"/>
      </g>
     </g>
    </g>
    <g id="ytick_6">
     <g id="line2d_10">
      <g>
       <use style="stroke:#000000;stroke-width:0.8;" x="49.572" xlink:href="#m15a1f61a82" y="65.117763"/>
      </g>
     </g>
     <g id="text_11">
      <!-- 5.7 -->
      <g transform="translate(26.668875 68.916982)scale(0.1 -0.1)">
       <defs>
        <path d="M 8.203125 72.90625 
L 55.078125 72.90625 
L 55.078125 68.703125 
L 28.609375 0 
L 18.3125 0 
L 43.21875 64.59375 
L 8.203125 64.59375 
z
" id="DejaVuSans-55"/>
       </defs>
       <use xlink:href="#DejaVuSans-53"/>
       <use x="63.623047" xlink:href="#DejaVuSans-46"/>
       <use x="95.410156" xlink:href="#DejaVuSans-55"/>
      </g>
     </g>
    </g>
    <g id="ytick_7">
     <g id="line2d_11">
      <g>
       <use style="stroke:#000000;stroke-width:0.8;" x="49.572" xlink:href="#m15a1f61a82" y="42.415277"/>
      </g>
     </g>
     <g id="text_12">
      <!-- 5.8 -->
      <g transform="translate(26.668875 46.214496)scale(0.1 -0.1)">
       <defs>
        <path d="M 31.78125 34.625 
Q 24.75 34.625 20.71875 30.859375 
Q 16.703125 27.09375 16.703125 20.515625 
Q 16.703125 13.921875 20.71875 10.15625 
Q 24.75 6.390625 31.78125 6.390625 
Q 38.8125 6.390625 42.859375 10.171875 
Q 46.921875 13.96875 46.921875 20.515625 
Q 46.921875 27.09375 42.890625 30.859375 
Q 38.875 34.625 31.78125 34.625 
z
M 21.921875 38.8125 
Q 15.578125 40.375 12.03125 44.71875 
Q 8.5 49.078125 8.5 55.328125 
Q 8.5 64.0625 14.71875 69.140625 
Q 20.953125 74.21875 31.78125 74.21875 
Q 42.671875 74.21875 48.875 69.140625 
Q 55.078125 64.0625 55.078125 55.328125 
Q 55.078125 49.078125 51.53125 44.71875 
Q 48 40.375 41.703125 38.8125 
Q 48.828125 37.15625 52.796875 32.3125 
Q 56.78125 27.484375 56.78125 20.515625 
Q 56.78125 9.90625 50.3125 4.234375 
Q 43.84375 -1.421875 31.78125 -1.421875 
Q 19.734375 -1.421875 13.25 4.234375 
Q 6.78125 9.90625 6.78125 20.515625 
Q 6.78125 27.484375 10.78125 32.3125 
Q 14.796875 37.15625 21.921875 38.8125 
z
M 18.3125 54.390625 
Q 18.3125 48.734375 21.84375 45.5625 
Q 25.390625 42.390625 31.78125 42.390625 
Q 38.140625 42.390625 41.71875 45.5625 
Q 45.3125 48.734375 45.3125 54.390625 
Q 45.3125 60.0625 41.71875 63.234375 
Q 38.140625 66.40625 31.78125 66.40625 
Q 25.390625 66.40625 21.84375 63.234375 
Q 18.3125 60.0625 18.3125 54.390625 
z
" id="DejaVuSans-56"/>
       </defs>
       <use xlink:href="#DejaVuSans-53"/>
       <use x="63.623047" xlink:href="#DejaVuSans-46"/>
       <use x="95.410156" xlink:href="#DejaVuSans-56"/>
      </g>
     </g>
    </g>
    <g id="text_13">
     <!-- log(I) -->
     <g transform="translate(20.589188 118.335219)rotate(-90)scale(0.1 -0.1)">
      <defs>
       <path d="M 9.421875 75.984375 
L 18.40625 75.984375 
L 18.40625 0 
L 9.421875 0 
z
" id="DejaVuSans-108"/>
       <path d="M 30.609375 48.390625 
Q 23.390625 48.390625 19.1875 42.75 
Q 14.984375 37.109375 14.984375 27.296875 
Q 14.984375 17.484375 19.15625 11.84375 
Q 23.34375 6.203125 30.609375 6.203125 
Q 37.796875 6.203125 41.984375 11.859375 
Q 46.1875 17.53125 46.1875 27.296875 
Q 46.1875 37.015625 41.984375 42.703125 
Q 37.796875 48.390625 30.609375 48.390625 
z
M 30.609375 56 
Q 42.328125 56 49.015625 48.375 
Q 55.71875 40.765625 55.71875 27.296875 
Q 55.71875 13.875 49.015625 6.21875 
Q 42.328125 -1.421875 30.609375 -1.421875 
Q 18.84375 -1.421875 12.171875 6.21875 
Q 5.515625 13.875 5.515625 27.296875 
Q 5.515625 40.765625 12.171875 48.375 
Q 18.84375 56 30.609375 56 
z
" id="DejaVuSans-111"/>
       <path d="M 45.40625 27.984375 
Q 45.40625 37.75 41.375 43.109375 
Q 37.359375 48.484375 30.078125 48.484375 
Q 22.859375 48.484375 18.828125 43.109375 
Q 14.796875 37.75 14.796875 27.984375 
Q 14.796875 18.265625 18.828125 12.890625 
Q 22.859375 7.515625 30.078125 7.515625 
Q 37.359375 7.515625 41.375 12.890625 
Q 45.40625 18.265625 45.40625 27.984375 
z
M 54.390625 6.78125 
Q 54.390625 -7.171875 48.1875 -13.984375 
Q 42 -20.796875 29.203125 -20.796875 
Q 24.46875 -20.796875 20.265625 -20.09375 
Q 16.0625 -19.390625 12.109375 -17.921875 
L 12.109375 -9.1875 
Q 16.0625 -11.328125 19.921875 -12.34375 
Q 23.78125 -13.375 27.78125 -13.375 
Q 36.625 -13.375 41.015625 -8.765625 
Q 45.40625 -4.15625 45.40625 5.171875 
L 45.40625 9.625 
Q 42.625 4.78125 38.28125 2.390625 
Q 33.9375 0 27.875 0 
Q 17.828125 0 11.671875 7.65625 
Q 5.515625 15.328125 5.515625 27.984375 
Q 5.515625 40.671875 11.671875 48.328125 
Q 17.828125 56 27.875 56 
Q 33.9375 56 38.28125 53.609375 
Q 42.625 51.21875 45.40625 46.390625 
L 45.40625 54.6875 
L 54.390625 54.6875 
z
" id="DejaVuSans-103"/>
       <path d="M 9.8125 72.90625 
L 19.671875 72.90625 
L 19.671875 0 
L 9.8125 0 
z
" id="DejaVuSans-73"/>
      </defs>
      <use xlink:href="#DejaVuSans-108"/>
      <use x="27.783203" xlink:href="#DejaVuSans-111"/>
      <use x="88.964844" xlink:href="#DejaVuSans-103"/>
      <use x="152.441406" xlink:href="#DejaVuSans-40"/>
      <use x="191.455078" xlink:href="#DejaVuSans-73"/>
      <use x="220.947266" xlink:href="#DejaVuSans-41"/>
     </g>
    </g>
   </g>
   <g id="LineCollection_1">
    <path clip-path="url(#p281831d11f)" d="M 49.572 222.76 
L 49.572 -1 
" style="fill:none;stroke:#000000;stroke-width:1.5;"/>
    <path clip-path="url(#p281831d11f)" d="M 50.102779 200.32161 
L 50.102779 -1 
" style="fill:none;stroke:#000000;stroke-width:1.5;"/>
    <path clip-path="url(#p281831d11f)" d="M 50.693447 166.433921 
L 50.693447 -1 
" style="fill:none;stroke:#000000;stroke-width:1.5;"/>
    <path clip-path="url(#p281831d11f)" d="M 51.344006 140.020405 
L 51.344006 -1 
" style="fill:none;stroke:#000000;stroke-width:1.5;"/>
    <path clip-path="url(#p281831d11f)" d="M 52.054455 120.153543 
L 52.054455 -1 
" style="fill:none;stroke:#000000;stroke-width:1.5;"/>
    <path clip-path="url(#p281831d11f)" d="M 52.824793 106.433445 
L 52.824793 -1 
" style="fill:none;stroke:#000000;stroke-width:1.5;"/>
    <path clip-path="url(#p281831d11f)" d="M 53.655021 98.246528 
L 53.655021 -1 
" style="fill:none;stroke:#000000;stroke-width:1.5;"/>
    <path clip-path="url(#p281831d11f)" d="M 54.545139 92.879733 
L 54.545139 -1 
" style="fill:none;stroke:#000000;stroke-width:1.5;"/>
    <path clip-path="url(#p281831d11f)" d="M 55.495148 83.900614 
L 55.495148 -1 
" style="fill:none;stroke:#000000;stroke-width:1.5;"/>
    <path clip-path="url(#p281831d11f)" d="M 56.505045 80.817435 
L 56.505045 -1 
" style="fill:none;stroke:#000000;stroke-width:1.5;"/>
    <path clip-path="url(#p281831d11f)" d="M 57.574833 78.192819 
L 57.574833 -1 
" style="fill:none;stroke:#000000;stroke-width:1.5;"/>
    <path clip-path="url(#p281831d11f)" d="M 58.704511 74.801658 
L 58.704511 -1 
" style="fill:none;stroke:#000000;stroke-width:1.5;"/>
    <path clip-path="url(#p281831d11f)" d="M 59.894079 71.711118 
L 59.894079 -1 
" style="fill:none;stroke:#000000;stroke-width:1.5;"/>
    <path clip-path="url(#p281831d11f)" d="M 61.143537 72.444105 
L 61.143537 -1 
" style="fill:none;stroke:#000000;stroke-width:1.5;"/>
    <path clip-path="url(#p281831d11f)" d="M 62.452884 70.782624 
L 62.452884 -1 
" style="fill:none;stroke:#000000;stroke-width:1.5;"/>
    <path clip-path="url(#p281831d11f)" d="M 63.822122 68.335653 
L 63.822122 -1 
" style="fill:none;stroke:#000000;stroke-width:1.5;"/>
    <path clip-path="url(#p281831d11f)" d="M 65.251248 68.371918 
L 65.251248 -1 
" style="fill:none;stroke:#000000;stroke-width:1.5;"/>
    <path clip-path="url(#p281831d11f)" d="M 66.740266 67.347187 
L 66.740266 -0.576716 
" style="fill:none;stroke:#000000;stroke-width:1.5;"/>
    <path clip-path="url(#p281831d11f)" d="M 68.289174 68.558656 
L 68.289174 2.183 
" style="fill:none;stroke:#000000;stroke-width:1.5;"/>
    <path clip-path="url(#p281831d11f)" d="M 69.897972 69.325527 
L 69.897972 4.738008 
" style="fill:none;stroke:#000000;stroke-width:1.5;"/>
    <path clip-path="url(#p281831d11f)" d="M 71.566657 67.070923 
L 71.566657 4.70629 
" style="fill:none;stroke:#000000;stroke-width:1.5;"/>
    <path clip-path="url(#p281831d11f)" d="M 73.295235 67.474926 
L 73.295235 7.269959 
" style="fill:none;stroke:#000000;stroke-width:1.5;"/>
    <path clip-path="url(#p281831d11f)" d="M 75.083702 68.856138 
L 75.083702 9.867727 
" style="fill:none;stroke:#000000;stroke-width:1.5;"/>
    <path clip-path="url(#p281831d11f)" d="M 76.932058 68.7822 
L 76.932058 12.278866 
" style="fill:none;stroke:#000000;stroke-width:1.5;"/>
    <path clip-path="url(#p281831d11f)" d="M 78.840306 69.866147 
L 78.840306 13.502893 
" style="fill:none;stroke:#000000;stroke-width:1.5;"/>
    <path clip-path="url(#p281831d11f)" d="M 80.808441 70.093047 
L 80.808441 15.491517 
" style="fill:none;stroke:#000000;stroke-width:1.5;"/>
    <path clip-path="url(#p281831d11f)" d="M 82.836468 70.890337 
L 82.836468 17.988609 
" style="fill:none;stroke:#000000;stroke-width:1.5;"/>
    <path clip-path="url(#p281831d11f)" d="M 84.924383 71.025438 
L 84.924383 18.712395 
" style="fill:none;stroke:#000000;stroke-width:1.5;"/>
    <path clip-path="url(#p281831d11f)" d="M 87.072189 71.643459 
L 87.072189 20.131711 
" style="fill:none;stroke:#000000;stroke-width:1.5;"/>
    <path clip-path="url(#p281831d11f)" d="M 89.279887 72.695362 
L 89.279887 22.904202 
" style="fill:none;stroke:#000000;stroke-width:1.5;"/>
    <path clip-path="url(#p281831d11f)" d="M 91.547473 73.502828 
L 91.547473 24.600865 
" style="fill:none;stroke:#000000;stroke-width:1.5;"/>
    <path clip-path="url(#p281831d11f)" d="M 93.87495 74.762795 
L 93.87495 26.129518 
" style="fill:none;stroke:#000000;stroke-width:1.5;"/>
    <path clip-path="url(#p281831d11f)" d="M 96.262315 75.667473 
L 96.262315 28.18212 
" style="fill:none;stroke:#000000;stroke-width:1.5;"/>
    <path clip-path="url(#p281831d11f)" d="M 98.709572 77.645704 
L 98.709572 30.842135 
" style="fill:none;stroke:#000000;stroke-width:1.5;"/>
    <path clip-path="url(#p281831d11f)" d="M 101.216716 79.221231 
L 101.216716 33.265939 
" style="fill:none;stroke:#000000;stroke-width:1.5;"/>
    <path clip-path="url(#p281831d11f)" d="M 103.783752 79.288457 
L 103.783752 34.323905 
" style="fill:none;stroke:#000000;stroke-width:1.5;"/>
    <path clip-path="url(#p281831d11f)" d="M 106.410676 80.306801 
L 106.410676 36.091149 
" style="fill:none;stroke:#000000;stroke-width:1.5;"/>
    <path clip-path="url(#p281831d11f)" d="M 109.097495 82.456832 
L 109.097495 38.538229 
" style="fill:none;stroke:#000000;stroke-width:1.5;"/>
    <path clip-path="url(#p281831d11f)" d="M 111.844198 83.946838 
L 111.844198 41.010747 
" style="fill:none;stroke:#000000;stroke-width:1.5;"/>
    <path clip-path="url(#p281831d11f)" d="M 114.650793 86.092863 
L 114.650793 43.590221 
" style="fill:none;stroke:#000000;stroke-width:1.5;"/>
    <path clip-path="url(#p281831d11f)" d="M 117.517279 86.734051 
L 117.517279 44.723964 
" style="fill:none;stroke:#000000;stroke-width:1.5;"/>
    <path clip-path="url(#p281831d11f)" d="M 120.443657 88.949359 
L 120.443657 47.470798 
" style="fill:none;stroke:#000000;stroke-width:1.5;"/>
    <path clip-path="url(#p281831d11f)" d="M 123.429923 91.096142 
L 123.429923 50.874842 
" style="fill:none;stroke:#000000;stroke-width:1.5;"/>
    <path clip-path="url(#p281831d11f)" d="M 126.476072 92.853752 
L 126.476072 52.701302 
" style="fill:none;stroke:#000000;stroke-width:1.5;"/>
    <path clip-path="url(#p281831d11f)" d="M 129.582121 94.71009 
L 129.582121 55.188543 
" style="fill:none;stroke:#000000;stroke-width:1.5;"/>
    <path clip-path="url(#p281831d11f)" d="M 132.748053 95.988785 
L 132.748053 57.063933 
" style="fill:none;stroke:#000000;stroke-width:1.5;"/>
    <path clip-path="url(#p281831d11f)" d="M 135.973877 98.337569 
L 135.973877 59.63767 
" style="fill:none;stroke:#000000;stroke-width:1.5;"/>
    <path clip-path="url(#p281831d11f)" d="M 139.259593 100.408466 
L 139.259593 62.512243 
" style="fill:none;stroke:#000000;stroke-width:1.5;"/>
    <path clip-path="url(#p281831d11f)" d="M 142.605201 102.081097 
L 142.605201 63.915322 
" style="fill:none;stroke:#000000;stroke-width:1.5;"/>
    <path clip-path="url(#p281831d11f)" d="M 146.010692 106.332444 
L 146.010692 67.739066 
" style="fill:none;stroke:#000000;stroke-width:1.5;"/>
    <path clip-path="url(#p281831d11f)" d="M 149.476075 107.318853 
L 149.476075 69.034649 
" style="fill:none;stroke:#000000;stroke-width:1.5;"/>
    <path clip-path="url(#p281831d11f)" d="M 153.001349 110.652532 
L 153.001349 72.43761 
" style="fill:none;stroke:#000000;stroke-width:1.5;"/>
    <path clip-path="url(#p281831d11f)" d="M 156.586516 112.538423 
L 156.586516 74.236681 
" style="fill:none;stroke:#000000;stroke-width:1.5;"/>
    <path clip-path="url(#p281831d11f)" d="M 160.231565 114.783067 
L 160.231565 76.86606 
" style="fill:none;stroke:#000000;stroke-width:1.5;"/>
    <path clip-path="url(#p281831d11f)" d="M 163.936515 117.227007 
L 163.936515 79.270379 
" style="fill:none;stroke:#000000;stroke-width:1.5;"/>
    <path clip-path="url(#p281831d11f)" d="M 167.701348 119.085618 
L 167.701348 81.439245 
" style="fill:none;stroke:#000000;stroke-width:1.5;"/>
    <path clip-path="url(#p281831d11f)" d="M 171.526073 122.739295 
L 171.526073 85.388672 
" style="fill:none;stroke:#000000;stroke-width:1.5;"/>
    <path clip-path="url(#p281831d11f)" d="M 175.410681 125.34724 
L 175.410681 88.033856 
" style="fill:none;stroke:#000000;stroke-width:1.5;"/>
    <path clip-path="url(#p281831d11f)" d="M 179.355189 127.776132 
L 179.355189 90.57858 
" style="fill:none;stroke:#000000;stroke-width:1.5;"/>
    <path clip-path="url(#p281831d11f)" d="M 183.359581 130.826727 
L 183.359581 94.202487 
" style="fill:none;stroke:#000000;stroke-width:1.5;"/>
    <path clip-path="url(#p281831d11f)" d="M 187.423864 133.25183 
L 187.423864 96.689945 
" style="fill:none;stroke:#000000;stroke-width:1.5;"/>
    <path clip-path="url(#p281831d11f)" d="M 191.548039 135.658423 
L 191.548039 100.051337 
" style="fill:none;stroke:#000000;stroke-width:1.5;"/>
    <path clip-path="url(#p281831d11f)" d="M 195.732106 137.214247 
L 195.732106 102.619335 
" style="fill:none;stroke:#000000;stroke-width:1.5;"/>
    <path clip-path="url(#p281831d11f)" d="M 199.976048 140.002651 
L 199.976048 106.041457 
" style="fill:none;stroke:#000000;stroke-width:1.5;"/>
    <path clip-path="url(#p281831d11f)" d="M 204.279899 144.055244 
L 204.279899 110.247987 
" style="fill:none;stroke:#000000;stroke-width:1.5;"/>
    <path clip-path="url(#p281831d11f)" d="M 208.643624 145.325278 
L 208.643624 112.334039 
" style="fill:none;stroke:#000000;stroke-width:1.5;"/>
    <path clip-path="url(#p281831d11f)" d="M 213.067258 148.272382 
L 213.067258 115.633401 
" style="fill:none;stroke:#000000;stroke-width:1.5;"/>
    <path clip-path="url(#p281831d11f)" d="M 217.550767 151.559945 
L 217.550767 119.311327 
" style="fill:none;stroke:#000000;stroke-width:1.5;"/>
    <path clip-path="url(#p281831d11f)" d="M 222.094167 154.654382 
L 222.094167 122.821676 
" style="fill:none;stroke:#000000;stroke-width:1.5;"/>
    <path clip-path="url(#p281831d11f)" d="M 226.697459 155.953212 
L 226.697459 124.816795 
" style="fill:none;stroke:#000000;stroke-width:1.5;"/>
    <path clip-path="url(#p281831d11f)" d="M 231.360643 160.158876 
L 231.360643 129.215584 
" style="fill:none;stroke:#000000;stroke-width:1.5;"/>
    <path clip-path="url(#p281831d11f)" d="M 236.083719 163.089309 
L 236.083719 132.589208 
" style="fill:none;stroke:#000000;stroke-width:1.5;"/>
    <path clip-path="url(#p281831d11f)" d="M 240.866687 165.607403 
L 240.866687 135.45588 
" style="fill:none;stroke:#000000;stroke-width:1.5;"/>
    <path clip-path="url(#p281831d11f)" d="M 245.709529 168.998997 
L 245.709529 139.027825 
" style="fill:none;stroke:#000000;stroke-width:1.5;"/>
    <path clip-path="url(#p281831d11f)" d="M 250.61228 171.46069 
L 250.61228 141.773577 
" style="fill:none;stroke:#000000;stroke-width:1.5;"/>
    <path clip-path="url(#p281831d11f)" d="M 255.574906 174.965951 
L 255.574906 145.967116 
" style="fill:none;stroke:#000000;stroke-width:1.5;"/>
    <path clip-path="url(#p281831d11f)" d="M 260.597424 178.561171 
L 260.597424 149.533107 
" style="fill:none;stroke:#000000;stroke-width:1.5;"/>
    <path clip-path="url(#p281831d11f)" d="M 265.679833 181.627896 
L 265.679833 152.994309 
" style="fill:none;stroke:#000000;stroke-width:1.5;"/>
    <path clip-path="url(#p281831d11f)" d="M 270.822135 184.801142 
L 270.822135 156.725063 
" style="fill:none;stroke:#000000;stroke-width:1.5;"/>
    <path clip-path="url(#p281831d11f)" d="M 276.024328 188.777416 
L 276.024328 160.646127 
" style="fill:none;stroke:#000000;stroke-width:1.5;"/>
    <path clip-path="url(#p281831d11f)" d="M 281.286412 191.995804 
L 281.286412 163.989223 
" style="fill:none;stroke:#000000;stroke-width:1.5;"/>
    <path clip-path="url(#p281831d11f)" d="M 286.608389 195.093922 
L 286.608389 167.601764 
" style="fill:none;stroke:#000000;stroke-width:1.5;"/>
    <path clip-path="url(#p281831d11f)" d="M 291.99024 198.594203 
L 291.99024 171.287376 
" style="fill:none;stroke:#000000;stroke-width:1.5;"/>
    <path clip-path="url(#p281831d11f)" d="M 297.432 201.093785 
L 297.432 173.511344 
" style="fill:none;stroke:#000000;stroke-width:1.5;"/>
   </g>
   <g id="line2d_12"/>
   <g id="line2d_13">
    <path clip-path="url(#p281831d11f)" d="M 49.572 36.149065 
L 50.102779 22.803742 
L 50.693447 26.604536 
L 51.344006 25.867327 
L 52.054455 26.279342 
L 52.824793 25.921779 
L 53.655021 26.029059 
L 54.545139 27.454329 
L 55.495148 25.227114 
L 56.505045 27.609457 
L 57.574833 28.456436 
L 58.704511 28.225638 
L 59.894079 27.987805 
L 61.143537 31.486895 
L 62.452884 31.672767 
L 63.822122 31.354067 
L 65.251248 31.919586 
L 66.740266 33.385235 
L 68.289174 35.370828 
L 69.897972 37.031768 
L 71.566657 35.888606 
L 73.295235 37.372443 
L 75.083702 39.361933 
L 76.932058 40.530533 
L 78.840306 41.68452 
L 80.808441 42.792282 
L 82.836468 44.439473 
L 84.924383 44.868916 
L 87.072189 45.887585 
L 89.279887 47.799782 
L 91.547473 49.051846 
L 93.87495 50.446157 
L 96.262315 51.924796 
L 98.709572 54.24392 
L 101.216716 56.243585 
L 103.783752 56.806181 
L 106.410676 58.198975 
L 109.097495 60.49753 
L 111.844198 62.478793 
L 114.650793 64.841542 
L 117.517279 65.729008 
L 120.443657 68.210079 
L 123.429923 70.985492 
L 126.476072 72.777527 
L 129.582121 74.949316 
L 132.748053 76.526359 
L 135.973877 78.987619 
L 139.259593 81.460355 
L 142.605201 82.99821 
L 146.010692 87.035755 
L 149.476075 88.176751 
L 153.001349 91.545071 
L 156.586516 93.387552 
L 160.231565 95.824563 
L 163.936515 98.248693 
L 167.701348 100.262432 
L 171.526073 104.063984 
L 175.410681 106.690548 
L 179.355189 109.177356 
L 183.359581 112.514607 
L 187.423864 114.970888 
L 191.548039 117.85488 
L 195.732106 119.916791 
L 199.976048 123.022054 
L 204.279899 127.151615 
L 208.643624 128.829659 
L 213.067258 131.952892 
L 217.550767 135.435636 
L 222.094167 138.738029 
L 226.697459 140.385004 
L 231.360643 144.68723 
L 236.083719 147.839259 
L 240.866687 150.531641 
L 245.709529 154.013411 
L 250.61228 156.617133 
L 255.574906 160.466534 
L 260.597424 164.047139 
L 265.679833 167.311102 
L 270.822135 170.763102 
L 276.024328 174.711771 
L 281.286412 177.992514 
L 286.608389 181.347843 
L 291.99024 184.940789 
L 297.432 187.302565 
" style="fill:none;stroke:#000000;stroke-linecap:square;"/>
   </g>
   <g id="line2d_14">
    <path clip-path="url(#p281831d11f)" d="M 49.572 22.176 
L 50.102779 22.532165 
L 50.693447 22.928518 
L 51.344006 23.365058 
L 52.054455 23.841786 
L 52.824793 24.358702 
L 53.655021 24.915805 
L 54.545139 25.513096 
L 55.495148 26.150574 
L 56.505045 26.82824 
L 57.574833 27.546093 
L 58.704511 28.304134 
L 59.894079 29.102362 
L 61.143537 29.940778 
L 62.452884 30.819382 
L 63.822122 31.738173 
L 65.251248 32.697152 
L 66.740266 33.696318 
L 68.289174 34.735672 
L 69.897972 35.815214 
L 71.566657 36.934943 
L 73.295235 38.094859 
L 75.083702 39.294963 
L 76.932058 40.535255 
L 78.840306 41.815734 
L 80.808441 43.136401 
L 82.836468 44.497255 
L 84.924383 45.898297 
L 87.072189 47.339527 
L 89.279887 48.820944 
L 91.547473 50.342548 
L 93.87495 51.904341 
L 96.262315 53.50632 
L 98.709572 55.148488 
L 101.216716 56.830843 
L 103.783752 58.553385 
L 106.410676 60.316115 
L 109.097495 62.119033 
L 111.844198 63.962138 
L 114.650793 65.845431 
L 117.517279 67.768911 
L 120.443657 69.732579 
L 123.429923 71.736434 
L 126.476072 73.780477 
L 129.582121 75.864708 
L 132.748053 77.989126 
L 135.973877 80.153732 
L 139.259593 82.358525 
L 142.605201 84.603506 
L 146.010692 86.888674 
L 149.476075 89.21403 
L 153.001349 91.579573 
L 156.586516 93.985305 
L 160.231565 96.431223 
L 163.936515 98.917329 
L 167.701348 101.443623 
L 171.526073 104.010104 
L 175.410681 106.616773 
L 179.355189 109.26363 
L 183.359581 111.950674 
L 187.423864 114.677905 
L 191.548039 117.445325 
L 195.732106 120.252931 
L 199.976048 123.100726 
L 204.279899 125.988707 
L 208.643624 128.916877 
L 213.067258 131.885234 
L 217.550767 134.893778 
L 222.094167 137.942511 
L 226.697459 141.03143 
L 231.360643 144.160537 
L 236.083719 147.329832 
L 240.866687 150.539315 
L 245.709529 153.788985 
L 250.61228 157.078842 
L 255.574906 160.408887 
L 260.597424 163.77912 
L 265.679833 167.18954 
L 270.822135 170.640148 
L 276.024328 174.130943 
L 281.286412 177.661926 
L 286.608389 181.233096 
L 291.99024 184.844454 
L 297.432 188.496 
" style="fill:none;stroke:#ff0000;stroke-linecap:square;"/>
   </g>
   <g id="patch_3">
    <path d="M 49.572 188.496 
L 49.572 22.176 
" style="fill:none;stroke:#000000;stroke-linecap:square;stroke-linejoin:miter;stroke-width:0.8;"/>
   </g>
   <g id="patch_4">
    <path d="M 297.432 188.496 
L 297.432 22.176 
" style="fill:none;stroke:#000000;stroke-linecap:square;stroke-linejoin:miter;stroke-width:0.8;"/>
   </g>
   <g id="patch_5">
    <path d="M 49.572 188.496 
L 297.432 188.496 
" style="fill:none;stroke:#000000;stroke-linecap:square;stroke-linejoin:miter;stroke-width:0.8;"/>
   </g>
   <g id="patch_6">
    <path d="M 49.572 22.176 
L 297.432 22.176 
" style="fill:none;stroke:#000000;stroke-linecap:square;stroke-linejoin:miter;stroke-width:0.8;"/>
   </g>
   <g id="text_14">
    <!-- Guinier analysis -->
    <g transform="translate(125.556375 16.176)scale(0.12 -0.12)">
     <defs>
      <path d="M 59.515625 10.40625 
L 59.515625 29.984375 
L 43.40625 29.984375 
L 43.40625 38.09375 
L 69.28125 38.09375 
L 69.28125 6.78125 
Q 63.578125 2.734375 56.6875 0.65625 
Q 49.8125 -1.421875 42 -1.421875 
Q 24.90625 -1.421875 15.25 8.5625 
Q 5.609375 18.5625 5.609375 36.375 
Q 5.609375 54.25 15.25 64.234375 
Q 24.90625 74.21875 42 74.21875 
Q 49.125 74.21875 55.546875 72.453125 
Q 61.96875 70.703125 67.390625 67.28125 
L 67.390625 56.78125 
Q 61.921875 61.421875 55.765625 63.765625 
Q 49.609375 66.109375 42.828125 66.109375 
Q 29.4375 66.109375 22.71875 58.640625 
Q 16.015625 51.171875 16.015625 36.375 
Q 16.015625 21.625 22.71875 14.15625 
Q 29.4375 6.6875 42.828125 6.6875 
Q 48.046875 6.6875 52.140625 7.59375 
Q 56.25 8.5 59.515625 10.40625 
z
" id="DejaVuSans-71"/>
      <path d="M 8.5 21.578125 
L 8.5 54.6875 
L 17.484375 54.6875 
L 17.484375 21.921875 
Q 17.484375 14.15625 20.5 10.265625 
Q 23.53125 6.390625 29.59375 6.390625 
Q 36.859375 6.390625 41.078125 11.03125 
Q 45.3125 15.671875 45.3125 23.6875 
L 45.3125 54.6875 
L 54.296875 54.6875 
L 54.296875 0 
L 45.3125 0 
L 45.3125 8.40625 
Q 42.046875 3.421875 37.71875 1 
Q 33.40625 -1.421875 27.6875 -1.421875 
Q 18.265625 -1.421875 13.375 4.4375 
Q 8.5 10.296875 8.5 21.578125 
z
M 31.109375 56 
z
" id="DejaVuSans-117"/>
      <path d="M 9.421875 54.6875 
L 18.40625 54.6875 
L 18.40625 0 
L 9.421875 0 
z
M 9.421875 75.984375 
L 18.40625 75.984375 
L 18.40625 64.59375 
L 9.421875 64.59375 
z
" id="DejaVuSans-105"/>
      <path d="M 56.203125 29.59375 
L 56.203125 25.203125 
L 14.890625 25.203125 
Q 15.484375 15.921875 20.484375 11.0625 
Q 25.484375 6.203125 34.421875 6.203125 
Q 39.59375 6.203125 44.453125 7.46875 
Q 49.3125 8.734375 54.109375 11.28125 
L 54.109375 2.78125 
Q 49.265625 0.734375 44.1875 -0.34375 
Q 39.109375 -1.421875 33.890625 -1.421875 
Q 20.796875 -1.421875 13.15625 6.1875 
Q 5.515625 13.8125 5.515625 26.8125 
Q 5.515625 40.234375 12.765625 48.109375 
Q 20.015625 56 32.328125 56 
Q 43.359375 56 49.78125 48.890625 
Q 56.203125 41.796875 56.203125 29.59375 
z
M 47.21875 32.234375 
Q 47.125 39.59375 43.09375 43.984375 
Q 39.0625 48.390625 32.421875 48.390625 
Q 24.90625 48.390625 20.390625 44.140625 
Q 15.875 39.890625 15.1875 32.171875 
z
" id="DejaVuSans-101"/>
      <path d="M 41.109375 46.296875 
Q 39.59375 47.171875 37.8125 47.578125 
Q 36.03125 48 33.890625 48 
Q 26.265625 48 22.1875 43.046875 
Q 18.109375 38.09375 18.109375 28.8125 
L 18.109375 0 
L 9.078125 0 
L 9.078125 54.6875 
L 18.109375 54.6875 
L 18.109375 46.1875 
Q 20.953125 51.171875 25.484375 53.578125 
Q 30.03125 56 36.53125 56 
Q 37.453125 56 38.578125 55.875 
Q 39.703125 55.765625 41.0625 55.515625 
z
" id="DejaVuSans-114"/>
      <path d="M 34.28125 27.484375 
Q 23.390625 27.484375 19.1875 25 
Q 14.984375 22.515625 14.984375 16.5 
Q 14.984375 11.71875 18.140625 8.90625 
Q 21.296875 6.109375 26.703125 6.109375 
Q 34.1875 6.109375 38.703125 11.40625 
Q 43.21875 16.703125 43.21875 25.484375 
L 43.21875 27.484375 
z
M 52.203125 31.203125 
L 52.203125 0 
L 43.21875 0 
L 43.21875 8.296875 
Q 40.140625 3.328125 35.546875 0.953125 
Q 30.953125 -1.421875 24.3125 -1.421875 
Q 15.921875 -1.421875 10.953125 3.296875 
Q 6 8.015625 6 15.921875 
Q 6 25.140625 12.171875 29.828125 
Q 18.359375 34.515625 30.609375 34.515625 
L 43.21875 34.515625 
L 43.21875 35.40625 
Q 43.21875 41.609375 39.140625 45 
Q 35.0625 48.390625 27.6875 48.390625 
Q 23 48.390625 18.546875 47.265625 
Q 14.109375 46.140625 10.015625 43.890625 
L 10.015625 52.203125 
Q 14.9375 54.109375 19.578125 55.046875 
Q 24.21875 56 28.609375 56 
Q 40.484375 56 46.34375 49.84375 
Q 52.203125 43.703125 52.203125 31.203125 
z
" id="DejaVuSans-97"/>
      <path d="M 32.171875 -5.078125 
Q 28.375 -14.84375 24.75 -17.8125 
Q 21.140625 -20.796875 15.09375 -20.796875 
L 7.90625 -20.796875 
L 7.90625 -13.28125 
L 13.1875 -13.28125 
Q 16.890625 -13.28125 18.9375 -11.515625 
Q 21 -9.765625 23.484375 -3.21875 
L 25.09375 0.875 
L 2.984375 54.6875 
L 12.5 54.6875 
L 29.59375 11.921875 
L 46.6875 54.6875 
L 56.203125 54.6875 
z
" id="DejaVuSans-121"/>
      <path d="M 44.28125 53.078125 
L 44.28125 44.578125 
Q 40.484375 46.53125 36.375 47.5 
Q 32.28125 48.484375 27.875 48.484375 
Q 21.1875 48.484375 17.84375 46.4375 
Q 14.5 44.390625 14.5 40.28125 
Q 14.5 37.15625 16.890625 35.375 
Q 19.28125 33.59375 26.515625 31.984375 
L 29.59375 31.296875 
Q 39.15625 29.25 43.1875 25.515625 
Q 47.21875 21.78125 47.21875 15.09375 
Q 47.21875 7.46875 41.1875 3.015625 
Q 35.15625 -1.421875 24.609375 -1.421875 
Q 20.21875 -1.421875 15.453125 -0.5625 
Q 10.6875 0.296875 5.421875 2 
L 5.421875 11.28125 
Q 10.40625 8.6875 15.234375 7.390625 
Q 20.0625 6.109375 24.8125 6.109375 
Q 31.15625 6.109375 34.5625 8.28125 
Q 37.984375 10.453125 37.984375 14.40625 
Q 37.984375 18.0625 35.515625 20.015625 
Q 33.0625 21.96875 24.703125 23.78125 
L 21.578125 24.515625 
Q 13.234375 26.265625 9.515625 29.90625 
Q 5.8125 33.546875 5.8125 39.890625 
Q 5.8125 47.609375 11.28125 51.796875 
Q 16.75 56 26.8125 56 
Q 31.78125 56 36.171875 55.265625 
Q 40.578125 54.546875 44.28125 53.078125 
z
" id="DejaVuSans-115"/>
     </defs>
     <use xlink:href="#DejaVuSans-71"/>
     <use x="77.490234" xlink:href="#DejaVuSans-117"/>
     <use x="140.869141" xlink:href="#DejaVuSans-105"/>
     <use x="168.652344" xlink:href="#DejaVuSans-110"/>
     <use x="232.03125" xlink:href="#DejaVuSans-105"/>
     <use x="259.814453" xlink:href="#DejaVuSans-101"/>
     <use x="321.337891" xlink:href="#DejaVuSans-114"/>
     <use x="362.451172" xlink:href="#DejaVuSans-32"/>
     <use x="394.238281" xlink:href="#DejaVuSans-97"/>
     <use x="455.517578" xlink:href="#DejaVuSans-110"/>
     <use x="518.896484" xlink:href="#DejaVuSans-97"/>
     <use x="580.175781" xlink:href="#DejaVuSans-108"/>
     <use x="607.958984" xlink:href="#DejaVuSans-121"/>
     <use x="667.138672" xlink:href="#DejaVuSans-115"/>
     <use x="719.238281" xlink:href="#DejaVuSans-105"/>
     <use x="747.021484" xlink:href="#DejaVuSans-115"/>
    </g>
   </g>
  </g>
  <g id="axes_2">
   <g id="patch_7">
    <path d="M 49.572 188.496 
L 49.572 22.176 
" style="fill:none;stroke:#000000;stroke-linecap:square;stroke-linejoin:miter;stroke-width:0.8;"/>
   </g>
   <g id="patch_8">
    <path d="M 297.432 188.496 
L 297.432 22.176 
" style="fill:none;stroke:#000000;stroke-linecap:square;stroke-linejoin:miter;stroke-width:0.8;"/>
   </g>
   <g id="patch_9">
    <path d="M 49.572 188.496 
L 297.432 188.496 
" style="fill:none;stroke:#000000;stroke-linecap:square;stroke-linejoin:miter;stroke-width:0.8;"/>
   </g>
   <g id="patch_10">
    <path d="M 49.572 22.176 
L 297.432 22.176 
" style="fill:none;stroke:#000000;stroke-linecap:square;stroke-linejoin:miter;stroke-width:0.8;"/>
   </g>
  </g>
 </g>
 <defs>
  <clipPath id="p281831d11f">
   <rect height="166.32" width="247.86" x="49.572" y="22.176"/>
  </clipPath>
 </defs>
</svg>
