<?xml version="1.0" encoding="utf-8" standalone="no"?>
<!DOCTYPE svg PUBLIC "-//W3C//DTD SVG 1.1//EN"
  "http://www.w3.org/Graphics/SVG/1.1/DTD/svg11.dtd">
<svg xmlns:xlink="http://www.w3.org/1999/xlink" width="326.16pt" height="124.56pt" viewBox="0 0 326.16 124.56" xmlns="http://www.w3.org/2000/svg" version="1.1">
 <metadata>
  <rdf:RDF xmlns:dc="http://purl.org/dc/elements/1.1/" xmlns:cc="http://creativecommons.org/ns#" xmlns:rdf="http://www.w3.org/1999/02/22-rdf-syntax-ns#">
   <cc:Work>
    <dc:type rdf:resource="http://purl.org/dc/dcmitype/StillImage"/>
    <dc:date>2022-05-04T13:41:26.955477</dc:date>
    <dc:format>image/svg+xml</dc:format>
    <dc:creator>
     <cc:Agent>
      <dc:title>Matplotlib v3.5.1, https://matplotlib.org/</dc:title>
     </cc:Agent>
    </dc:creator>
   </cc:Work>
  </rdf:RDF>
 </metadata>
 <defs>
  <style type="text/css">*{stroke-linejoin: round; stroke-linecap: butt}</style>
 </defs>
 <g id="figure_1">
  <g id="patch_1">
   <path d="M 0 124.56 
L 326.16 124.56 
L 326.16 0 
L 0 0 
z
" style="fill: #ffffff"/>
  </g>
  <g id="axes_1">
   <g id="patch_2">
    <path d="M 48.924 105.876 
L 293.544 105.876 
L 293.544 12.456 
L 48.924 12.456 
z
" style="fill: #ffffff"/>
   </g>
   <g id="matplotlib.axis_1">
    <g id="xtick_1">
     <g id="line2d_1">
      <defs>
       <path id="m459c79df37" d="M 0 0 
L 0 3.5 
" style="stroke: #000000; stroke-width: 0.8"/>
      </defs>
      <g>
       <use xlink:href="#m459c79df37" x="48.924" y="105.876" style="stroke: #000000; stroke-width: 0.8"/>
      </g>
     </g>
     <g id="text_1">
      <!-- 0 -->
      <g transform="translate(45.74275 120.474438)scale(0.1 -0.1)">
       <defs>
        <path id="DejaVuSans-30" d="M 2034 4250 
Q 1547 4250 1301 3770 
Q 1056 3291 1056 2328 
Q 1056 1369 1301 889 
Q 1547 409 2034 409 
Q 2525 409 2770 889 
Q 3016 1369 3016 2328 
Q 3016 3291 2770 3770 
Q 2525 4250 2034 4250 
z
M 2034 4750 
Q 2819 4750 3233 4129 
Q 3647 3509 3647 2328 
Q 3647 1150 3233 529 
Q 2819 -91 2034 -91 
Q 1250 -91 836 529 
Q 422 1150 422 2328 
Q 422 3509 836 4129 
Q 1250 4750 2034 4750 
z
" transform="scale(0.015625)"/>
       </defs>
       <use xlink:href="#DejaVuSans-30"/>
      </g>
     </g>
    </g>
    <g id="xtick_2">
     <g id="line2d_2">
      <g>
       <use xlink:href="#m459c79df37" x="79.578135" y="105.876" style="stroke: #000000; stroke-width: 0.8"/>
      </g>
     </g>
     <g id="text_2">
      <!-- 50 -->
      <g transform="translate(73.215635 120.474438)scale(0.1 -0.1)">
       <defs>
        <path id="DejaVuSans-35" d="M 691 4666 
L 3169 4666 
L 3169 4134 
L 1269 4134 
L 1269 2991 
Q 1406 3038 1543 3061 
Q 1681 3084 1819 3084 
Q 2600 3084 3056 2656 
Q 3513 2228 3513 1497 
Q 3513 744 3044 326 
Q 2575 -91 1722 -91 
Q 1428 -91 1123 -41 
Q 819 9 494 109 
L 494 744 
Q 775 591 1075 516 
Q 1375 441 1709 441 
Q 2250 441 2565 725 
Q 2881 1009 2881 1497 
Q 2881 1984 2565 2268 
Q 2250 2553 1709 2553 
Q 1456 2553 1204 2497 
Q 953 2441 691 2322 
L 691 4666 
z
" transform="scale(0.015625)"/>
       </defs>
       <use xlink:href="#DejaVuSans-35"/>
       <use xlink:href="#DejaVuSans-30" x="63.623047"/>
      </g>
     </g>
    </g>
    <g id="xtick_3">
     <g id="line2d_3">
      <g>
       <use xlink:href="#m459c79df37" x="110.232271" y="105.876" style="stroke: #000000; stroke-width: 0.8"/>
      </g>
     </g>
     <g id="text_3">
      <!-- 100 -->
      <g transform="translate(100.688521 120.474438)scale(0.1 -0.1)">
       <defs>
        <path id="DejaVuSans-31" d="M 794 531 
L 1825 531 
L 1825 4091 
L 703 3866 
L 703 4441 
L 1819 4666 
L 2450 4666 
L 2450 531 
L 3481 531 
L 3481 0 
L 794 0 
L 794 531 
z
" transform="scale(0.015625)"/>
       </defs>
       <use xlink:href="#DejaVuSans-31"/>
       <use xlink:href="#DejaVuSans-30" x="63.623047"/>
       <use xlink:href="#DejaVuSans-30" x="127.246094"/>
      </g>
     </g>
    </g>
    <g id="xtick_4">
     <g id="line2d_4">
      <g>
       <use xlink:href="#m459c79df37" x="140.886406" y="105.876" style="stroke: #000000; stroke-width: 0.8"/>
      </g>
     </g>
     <g id="text_4">
      <!-- 150 -->
      <g transform="translate(131.342656 120.474438)scale(0.1 -0.1)">
       <use xlink:href="#DejaVuSans-31"/>
       <use xlink:href="#DejaVuSans-35" x="63.623047"/>
       <use xlink:href="#DejaVuSans-30" x="127.246094"/>
      </g>
     </g>
    </g>
    <g id="xtick_5">
     <g id="line2d_5">
      <g>
       <use xlink:href="#m459c79df37" x="171.540541" y="105.876" style="stroke: #000000; stroke-width: 0.8"/>
      </g>
     </g>
     <g id="text_5">
      <!-- 200 -->
      <g transform="translate(161.996791 120.474438)scale(0.1 -0.1)">
       <defs>
        <path id="DejaVuSans-32" d="M 1228 531 
L 3431 531 
L 3431 0 
L 469 0 
L 469 531 
Q 828 903 1448 1529 
Q 2069 2156 2228 2338 
Q 2531 2678 2651 2914 
Q 2772 3150 2772 3378 
Q 2772 3750 2511 3984 
Q 2250 4219 1831 4219 
Q 1534 4219 1204 4116 
Q 875 4013 500 3803 
L 500 4441 
Q 881 4594 1212 4672 
Q 1544 4750 1819 4750 
Q 2544 4750 2975 4387 
Q 3406 4025 3406 3419 
Q 3406 3131 3298 2873 
Q 3191 2616 2906 2266 
Q 2828 2175 2409 1742 
Q 1991 1309 1228 531 
z
" transform="scale(0.015625)"/>
       </defs>
       <use xlink:href="#DejaVuSans-32"/>
       <use xlink:href="#DejaVuSans-30" x="63.623047"/>
       <use xlink:href="#DejaVuSans-30" x="127.246094"/>
      </g>
     </g>
    </g>
    <g id="xtick_6">
     <g id="line2d_6">
      <g>
       <use xlink:href="#m459c79df37" x="202.194677" y="105.876" style="stroke: #000000; stroke-width: 0.8"/>
      </g>
     </g>
     <g id="text_6">
      <!-- 250 -->
      <g transform="translate(192.650927 120.474438)scale(0.1 -0.1)">
       <use xlink:href="#DejaVuSans-32"/>
       <use xlink:href="#DejaVuSans-35" x="63.623047"/>
       <use xlink:href="#DejaVuSans-30" x="127.246094"/>
      </g>
     </g>
    </g>
    <g id="xtick_7">
     <g id="line2d_7">
      <g>
       <use xlink:href="#m459c79df37" x="232.848812" y="105.876" style="stroke: #000000; stroke-width: 0.8"/>
      </g>
     </g>
     <g id="text_7">
      <!-- 300 -->
      <g transform="translate(223.305062 120.474438)scale(0.1 -0.1)">
       <defs>
        <path id="DejaVuSans-33" d="M 2597 2516 
Q 3050 2419 3304 2112 
Q 3559 1806 3559 1356 
Q 3559 666 3084 287 
Q 2609 -91 1734 -91 
Q 1441 -91 1130 -33 
Q 819 25 488 141 
L 488 750 
Q 750 597 1062 519 
Q 1375 441 1716 441 
Q 2309 441 2620 675 
Q 2931 909 2931 1356 
Q 2931 1769 2642 2001 
Q 2353 2234 1838 2234 
L 1294 2234 
L 1294 2753 
L 1863 2753 
Q 2328 2753 2575 2939 
Q 2822 3125 2822 3475 
Q 2822 3834 2567 4026 
Q 2313 4219 1838 4219 
Q 1578 4219 1281 4162 
Q 984 4106 628 3988 
L 628 4550 
Q 988 4650 1302 4700 
Q 1616 4750 1894 4750 
Q 2613 4750 3031 4423 
Q 3450 4097 3450 3541 
Q 3450 3153 3228 2886 
Q 3006 2619 2597 2516 
z
" transform="scale(0.015625)"/>
       </defs>
       <use xlink:href="#DejaVuSans-33"/>
       <use xlink:href="#DejaVuSans-30" x="63.623047"/>
       <use xlink:href="#DejaVuSans-30" x="127.246094"/>
      </g>
     </g>
    </g>
    <g id="xtick_8">
     <g id="line2d_8">
      <g>
       <use xlink:href="#m459c79df37" x="263.502947" y="105.876" style="stroke: #000000; stroke-width: 0.8"/>
      </g>
     </g>
     <g id="text_8">
      <!-- 350 -->
      <g transform="translate(253.959197 120.474438)scale(0.1 -0.1)">
       <use xlink:href="#DejaVuSans-33"/>
       <use xlink:href="#DejaVuSans-35" x="63.623047"/>
       <use xlink:href="#DejaVuSans-30" x="127.246094"/>
      </g>
     </g>
    </g>
   </g>
   <g id="matplotlib.axis_2">
    <g id="ytick_1">
     <g id="line2d_9">
      <defs>
       <path id="mad152113ef" d="M 0 0 
L -3.5 0 
" style="stroke: #000000; stroke-width: 0.8"/>
      </defs>
      <g>
       <use xlink:href="#mad152113ef" x="48.924" y="87.658778" style="stroke: #000000; stroke-width: 0.8"/>
      </g>
     </g>
     <g id="text_9">
      <!-- 0.00 -->
      <g transform="translate(19.658375 91.457997)scale(0.1 -0.1)">
       <defs>
        <path id="DejaVuSans-2e" d="M 684 794 
L 1344 794 
L 1344 0 
L 684 0 
L 684 794 
z
" transform="scale(0.015625)"/>
       </defs>
       <use xlink:href="#DejaVuSans-30"/>
       <use xlink:href="#DejaVuSans-2e" x="63.623047"/>
       <use xlink:href="#DejaVuSans-30" x="95.410156"/>
       <use xlink:href="#DejaVuSans-30" x="159.033203"/>
      </g>
     </g>
    </g>
    <g id="ytick_2">
     <g id="line2d_10">
      <g>
       <use xlink:href="#mad152113ef" x="48.924" y="63.972897" style="stroke: #000000; stroke-width: 0.8"/>
      </g>
     </g>
     <g id="text_10">
      <!-- 0.05 -->
      <g transform="translate(19.658375 67.772116)scale(0.1 -0.1)">
       <use xlink:href="#DejaVuSans-30"/>
       <use xlink:href="#DejaVuSans-2e" x="63.623047"/>
       <use xlink:href="#DejaVuSans-30" x="95.410156"/>
       <use xlink:href="#DejaVuSans-35" x="159.033203"/>
      </g>
     </g>
    </g>
    <g id="ytick_3">
     <g id="line2d_11">
      <g>
       <use xlink:href="#mad152113ef" x="48.924" y="40.287015" style="stroke: #000000; stroke-width: 0.8"/>
      </g>
     </g>
     <g id="text_11">
      <!-- 0.10 -->
      <g transform="translate(19.658375 44.086234)scale(0.1 -0.1)">
       <use xlink:href="#DejaVuSans-30"/>
       <use xlink:href="#DejaVuSans-2e" x="63.623047"/>
       <use xlink:href="#DejaVuSans-31" x="95.410156"/>
       <use xlink:href="#DejaVuSans-30" x="159.033203"/>
      </g>
     </g>
    </g>
    <g id="ytick_4">
     <g id="line2d_12">
      <g>
       <use xlink:href="#mad152113ef" x="48.924" y="16.601134" style="stroke: #000000; stroke-width: 0.8"/>
      </g>
     </g>
     <g id="text_12">
      <!-- 0.15 -->
      <g transform="translate(19.658375 20.400353)scale(0.1 -0.1)">
       <use xlink:href="#DejaVuSans-30"/>
       <use xlink:href="#DejaVuSans-2e" x="63.623047"/>
       <use xlink:href="#DejaVuSans-31" x="95.410156"/>
       <use xlink:href="#DejaVuSans-35" x="159.033203"/>
      </g>
     </g>
    </g>
    <g id="text_13">
     <!-- V -->
     <g transform="translate(13.578687 62.586312)rotate(-90)scale(0.1 -0.1)">
      <defs>
       <path id="DejaVuSans-56" d="M 1831 0 
L 50 4666 
L 709 4666 
L 2188 738 
L 3669 4666 
L 4325 4666 
L 2547 0 
L 1831 0 
z
" transform="scale(0.015625)"/>
      </defs>
      <use xlink:href="#DejaVuSans-56"/>
     </g>
    </g>
   </g>
   <g id="line2d_13">
    <path d="M 48.924 105.348383 
L 50.150165 105.876 
L 50.763248 105.491893 
L 51.376331 105.81793 
L 51.989414 105.480327 
L 52.602496 104.834158 
L 53.215579 105.391924 
L 53.828662 105.082412 
L 55.054827 105.283164 
L 55.66791 105.48174 
L 56.280992 105.092528 
L 56.894075 105.21799 
L 57.507158 105.705159 
L 58.120241 104.889836 
L 58.733323 105.119426 
L 59.346406 105.211168 
L 59.959489 104.844547 
L 60.572571 104.773083 
L 61.185654 105.403111 
L 61.798737 104.91351 
L 62.41182 104.802566 
L 63.024902 104.982959 
L 63.637985 104.813052 
L 64.251068 105.023626 
L 64.86415 104.492163 
L 65.477233 105.346662 
L 66.090316 104.843504 
L 66.703398 104.678311 
L 67.316481 104.701327 
L 67.929564 104.527511 
L 69.155729 104.89783 
L 69.768812 104.535768 
L 70.381895 104.491233 
L 70.994977 104.573934 
L 71.60806 103.94174 
L 72.221143 104.599583 
L 72.834226 104.164221 
L 73.447308 104.538179 
L 74.060391 104.610189 
L 74.673474 104.310111 
L 76.512722 104.655202 
L 77.738887 103.966261 
L 78.35197 104.015999 
L 78.965053 104.269577 
L 79.578135 104.313867 
L 80.191218 103.787171 
L 80.804301 103.963055 
L 81.417383 103.697 
L 82.643549 104.109196 
L 83.256632 104.148977 
L 83.869714 103.519326 
L 84.482797 104.097215 
L 85.09588 103.720277 
L 85.708962 104.052772 
L 86.322045 103.932835 
L 86.935128 104.064156 
L 87.548211 103.264214 
L 88.774376 104.084544 
L 89.387459 103.305962 
L 90.000541 103.610979 
L 91.226707 103.042281 
L 91.839789 103.253463 
L 92.452872 103.645485 
L 93.065955 103.537099 
L 94.29212 103.511109 
L 94.905203 102.777082 
L 95.518286 103.307865 
L 96.131368 102.944855 
L 96.744451 103.405501 
L 97.357534 103.075603 
L 97.970617 103.343027 
L 98.583699 103.296209 
L 99.809865 102.623034 
L 100.422947 103.062745 
L 101.03603 102.873085 
L 101.649113 102.907023 
L 102.262195 103.066027 
L 102.875278 102.97709 
L 103.488361 103.155416 
L 104.714526 102.990054 
L 105.940692 103.36129 
L 106.553774 102.656312 
L 109.006105 102.92419 
L 109.619188 102.655982 
L 110.232271 102.906866 
L 110.845353 102.45917 
L 111.458436 102.837815 
L 112.071519 102.561553 
L 112.684602 102.465009 
L 113.297684 102.086031 
L 113.910767 102.295554 
L 114.52385 102.200363 
L 115.136932 102.674801 
L 115.750015 102.16603 
L 116.363098 102.493348 
L 116.97618 102.286915 
L 117.589263 102.756182 
L 118.202346 101.976519 
L 118.815429 102.282078 
L 119.428511 101.971329 
L 120.041594 102.31628 
L 120.654677 101.886819 
L 121.267759 102.443068 
L 121.880842 102.519667 
L 122.493925 102.444575 
L 123.107008 101.890416 
L 123.72009 101.968444 
L 124.333173 101.804556 
L 124.946256 101.951985 
L 125.559338 101.669108 
L 126.172421 101.840632 
L 126.785504 101.847087 
L 127.398586 101.716087 
L 128.011669 101.255876 
L 128.624752 101.784596 
L 129.237835 101.919783 
L 129.850917 101.839489 
L 130.464 101.914024 
L 131.077083 102.152614 
L 131.690165 101.692109 
L 133.529414 101.306258 
L 134.142496 101.785489 
L 134.755579 101.459264 
L 136.594827 101.456704 
L 137.20791 100.971996 
L 138.434075 101.722503 
L 139.047158 101.139818 
L 139.660241 101.338069 
L 140.886406 100.844638 
L 141.499489 101.316291 
L 142.112571 101.124983 
L 142.725654 101.292037 
L 144.564902 100.800653 
L 146.40415 101.061858 
L 147.017233 100.581391 
L 147.630316 100.284351 
L 148.243398 100.175093 
L 148.856481 100.443641 
L 150.082647 100.425801 
L 150.695729 100.271375 
L 151.308812 100.370558 
L 151.921895 100.199966 
L 153.761143 100.494038 
L 154.374226 99.818286 
L 154.987308 100.27643 
L 156.213474 100.278708 
L 156.826556 99.928847 
L 157.439639 100.279211 
L 158.052722 100.182437 
L 158.665805 99.427501 
L 159.278887 100.144269 
L 159.89197 99.876217 
L 161.118135 99.983254 
L 161.731218 99.713616 
L 162.344301 99.95014 
L 162.957383 99.921968 
L 164.183549 100.486004 
L 164.796632 99.914117 
L 165.409714 99.831359 
L 166.022797 99.973188 
L 167.248962 99.803341 
L 167.862045 100.020725 
L 168.475128 99.696029 
L 169.701293 99.678293 
L 170.314376 100.199995 
L 170.927459 99.62384 
L 171.540541 99.710171 
L 172.153624 99.581206 
L 172.766707 100.135424 
L 173.379789 99.77108 
L 173.992872 99.798238 
L 174.605955 100.168445 
L 175.219038 99.755701 
L 175.83212 99.908448 
L 176.445203 99.472893 
L 177.058286 99.95123 
L 177.671368 99.489682 
L 178.284451 99.756085 
L 179.510617 99.636101 
L 181.349865 99.746662 
L 181.962947 100.215239 
L 182.57603 99.536212 
L 183.189113 99.908535 
L 183.802195 99.962731 
L 184.415278 99.606064 
L 185.028361 99.954044 
L 185.641444 99.57807 
L 186.254526 99.679325 
L 187.480692 99.328275 
L 188.093774 98.847545 
L 188.706857 99.686183 
L 189.31994 99.22856 
L 189.933023 99.630442 
L 191.159188 98.717626 
L 191.772271 99.280953 
L 192.385353 99.433418 
L 192.998436 98.950564 
L 193.611519 98.977594 
L 194.224602 98.688376 
L 194.837684 98.799296 
L 195.450767 98.745308 
L 196.06385 98.551706 
L 196.676932 98.170064 
L 197.290015 98.667241 
L 197.903098 98.204844 
L 198.51618 98.328 
L 199.742346 98.022137 
L 200.355429 97.570664 
L 202.194677 96.811553 
L 202.807759 97.141901 
L 203.420842 96.586058 
L 204.033925 95.676292 
L 204.647008 95.790218 
L 205.873173 94.956623 
L 206.486256 95.126255 
L 207.099338 94.613507 
L 207.712421 94.367636 
L 208.325504 93.292787 
L 208.938586 93.574708 
L 209.551669 92.934952 
L 210.164752 92.536993 
L 210.777835 92.315992 
L 211.390917 91.703703 
L 213.843248 89.91251 
L 215.069414 88.780568 
L 215.682496 88.363143 
L 216.295579 87.198453 
L 216.908662 87.026254 
L 217.521744 86.266017 
L 218.134827 85.732871 
L 218.74791 84.821228 
L 219.360992 84.298615 
L 219.974075 83.578978 
L 223.039489 80.90841 
L 223.652571 79.935915 
L 224.265654 79.453874 
L 224.878737 78.535072 
L 225.49182 77.902236 
L 226.104902 77.085219 
L 226.717985 76.068345 
L 227.331068 75.602905 
L 228.557233 73.102402 
L 229.170316 72.289815 
L 229.783398 71.236882 
L 230.396481 69.735673 
L 231.622647 67.508984 
L 232.235729 65.651785 
L 234.074977 62.788746 
L 234.68806 62.055954 
L 235.301143 60.801419 
L 235.914226 60.264232 
L 236.527308 59.282533 
L 237.753474 58.19404 
L 238.366556 57.434397 
L 238.979639 56.898599 
L 239.592722 56.021455 
L 240.205805 56.111661 
L 241.43197 55.186632 
L 242.045053 55.074144 
L 242.658135 54.541826 
L 243.884301 53.138769 
L 245.110466 50.678823 
L 245.723549 49.567502 
L 246.336632 47.509301 
L 246.949714 45.88213 
L 248.788962 37.827421 
L 249.402045 34.240981 
L 250.628211 28.14882 
L 251.241293 24.765695 
L 253.080541 17.083448 
L 253.693624 15.714076 
L 254.306707 14.062326 
L 254.919789 13.023334 
L 255.532872 12.81751 
L 256.145955 12.456 
L 257.37212 13.84616 
L 257.985203 14.894145 
L 258.598286 16.512965 
L 259.211368 17.59059 
L 259.824451 19.883744 
L 260.437534 21.68177 
L 261.050617 23.866492 
L 262.276782 29.198965 
L 264.11603 35.431122 
L 264.729113 37.175574 
L 265.342195 39.921983 
L 267.181444 44.960042 
L 267.794526 47.026946 
L 268.407609 48.683902 
L 269.020692 49.853785 
L 269.633774 52.054385 
L 271.473023 55.938103 
L 272.086105 58.054561 
L 273.925353 62.295591 
L 274.538436 64.102811 
L 275.151519 64.842648 
L 276.990767 69.60454 
L 277.60385 70.250787 
L 278.216932 71.834347 
L 280.669263 76.283751 
L 281.282346 76.876861 
L 282.508511 78.401708 
L 283.121594 79.850343 
L 283.734677 80.211705 
L 284.347759 80.731136 
L 284.960842 81.66826 
L 285.573925 82.187986 
L 286.80009 83.453486 
L 288.026256 84.220917 
L 289.252421 85.863435 
L 289.865504 85.351578 
L 290.478586 86.493246 
L 291.091669 86.71929 
L 291.704752 87.345306 
L 292.317835 87.310025 
L 292.930917 88.235478 
L 293.544 87.898773 
L 293.544 87.898773 
" clip-path="url(#pc8a80a6e05)" style="fill: none; stroke: #000000; stroke-linecap: square"/>
   </g>
   <g id="patch_3">
    <path d="M 48.924 105.876 
L 48.924 12.456 
" style="fill: none; stroke: #000000; stroke-width: 0.8; stroke-linejoin: miter; stroke-linecap: square"/>
   </g>
   <g id="patch_4">
    <path d="M 293.544 105.876 
L 293.544 12.456 
" style="fill: none; stroke: #000000; stroke-width: 0.8; stroke-linejoin: miter; stroke-linecap: square"/>
   </g>
   <g id="patch_5">
    <path d="M 48.924 105.876 
L 293.544 105.876 
" style="fill: none; stroke: #000000; stroke-width: 0.8; stroke-linejoin: miter; stroke-linecap: square"/>
   </g>
   <g id="patch_6">
    <path d="M 48.924 12.456 
L 293.544 12.456 
" style="fill: none; stroke: #000000; stroke-width: 0.8; stroke-linejoin: miter; stroke-linecap: square"/>
   </g>
   <g id="text_14">
    <!-- V -->
    <g transform="translate(167.129625 6.456)scale(0.12 -0.12)">
     <use xlink:href="#DejaVuSans-56"/>
    </g>
   </g>
  </g>
  <g id="axes_2">
   <g id="patch_7">
    <path d="M 48.924 105.876 
L 48.924 12.456 
" style="fill: none; stroke: #000000; stroke-width: 0.8; stroke-linejoin: miter; stroke-linecap: square"/>
   </g>
   <g id="patch_8">
    <path d="M 293.544 105.876 
L 293.544 12.456 
" style="fill: none; stroke: #000000; stroke-width: 0.8; stroke-linejoin: miter; stroke-linecap: square"/>
   </g>
   <g id="patch_9">
    <path d="M 48.924 105.876 
L 293.544 105.876 
" style="fill: none; stroke: #000000; stroke-width: 0.8; stroke-linejoin: miter; stroke-linecap: square"/>
   </g>
   <g id="patch_10">
    <path d="M 48.924 12.456 
L 293.544 12.456 
" style="fill: none; stroke: #000000; stroke-width: 0.8; stroke-linejoin: miter; stroke-linecap: square"/>
   </g>
  </g>
 </g>
 <defs>
  <clipPath id="pc8a80a6e05">
   <rect x="48.924" y="12.456" width="244.62" height="93.42"/>
  </clipPath>
 </defs>
</svg>
